<svg width="186" height="133" viewBox="0 0 186 133" fill="none" xmlns="http://www.w3.org/2000/svg">
<path d="M30.848 2.254H32.724V15.218H30.848V2.254ZM32.248 7.224H34.53V8.75H32.248V7.224ZM27.446 3.598H29.28C29.28 4.89533 29.0933 6.12267 28.72 7.28C28.356 8.43733 27.7493 9.50133 26.9 10.472C26.06 11.4333 24.9213 12.2733 23.484 12.992L22.434 11.578C23.5727 10.99 24.5107 10.3273 25.248 9.59C25.9947 8.85267 26.5453 8.01733 26.9 7.084C27.264 6.14133 27.446 5.09133 27.446 3.934V3.598ZM23.148 3.598H28.412V5.096H23.148V3.598ZM44.0629 2.254H45.9249V15.26H44.0629V2.254ZM38.9389 3.164C39.6016 3.164 40.1896 3.35533 40.7029 3.738C41.2162 4.11133 41.6176 4.648 41.9069 5.348C42.2056 6.03867 42.3549 6.85533 42.3549 7.798C42.3549 8.75 42.2056 9.576 41.9069 10.276C41.6176 10.9667 41.2162 11.5033 40.7029 11.886C40.1896 12.2593 39.6016 12.446 38.9389 12.446C38.2856 12.446 37.7022 12.2593 37.1889 11.886C36.6756 11.5033 36.2696 10.9667 35.9709 10.276C35.6816 9.576 35.5369 8.75 35.5369 7.798C35.5369 6.85533 35.6816 6.03867 35.9709 5.348C36.2696 4.648 36.6756 4.11133 37.1889 3.738C37.7022 3.35533 38.2856 3.164 38.9389 3.164ZM38.9389 4.858C38.6216 4.858 38.3416 4.97 38.0989 5.194C37.8562 5.418 37.6649 5.74933 37.5249 6.188C37.3942 6.61733 37.3289 7.154 37.3289 7.798C37.3289 8.43267 37.3942 8.974 37.5249 9.422C37.6649 9.86067 37.8562 10.192 38.0989 10.416C38.3416 10.64 38.6216 10.752 38.9389 10.752C39.2656 10.752 39.5502 10.64 39.7929 10.416C40.0356 10.192 40.2222 9.86067 40.3529 9.422C40.4929 8.974 40.5629 8.43267 40.5629 7.798C40.5629 7.154 40.4929 6.61733 40.3529 6.188C40.2222 5.74933 40.0356 5.418 39.7929 5.194C39.5502 4.97 39.2656 4.858 38.9389 4.858ZM49.1438 8.26H58.2578V9.73H49.1438V8.26ZM47.7718 12.166H59.5178V13.678H47.7718V12.166ZM49.1438 3.332H58.1598V4.844H50.9918V8.876H49.1438V3.332ZM68.6727 2.254H70.5347V15.26H68.6727V2.254ZM70.1147 7.168H72.3967V8.694H70.1147V7.168ZM60.9027 10.724H61.9807C62.7181 10.724 63.4087 10.7147 64.0527 10.696C64.6967 10.6773 65.3221 10.64 65.9287 10.584C66.5447 10.5187 67.1701 10.4347 67.8047 10.332L67.9727 11.83C67.3194 11.942 66.6754 12.0307 66.0407 12.096C65.4154 12.152 64.7714 12.194 64.1087 12.222C63.4461 12.25 62.7367 12.264 61.9807 12.264H60.9027V10.724ZM60.8747 3.36H66.8387V8.386H62.7367V11.312H60.9027V6.916H64.9907V4.858H60.8747V3.36ZM81.8736 2.282H83.7356V11.592H81.8736V2.282ZM75.0976 13.524H84.0716V15.022H75.0976V13.524ZM75.0976 10.668H76.9596V14.14H75.0976V10.668ZM76.6796 3.108C77.3423 3.108 77.9396 3.248 78.4716 3.528C79.0036 3.808 79.4236 4.19533 79.7316 4.69C80.049 5.18467 80.2076 5.754 80.2076 6.398C80.2076 7.02333 80.049 7.588 79.7316 8.092C79.4236 8.58667 79.0036 8.97867 78.4716 9.268C77.9396 9.548 77.3423 9.688 76.6796 9.688C76.017 9.688 75.4196 9.548 74.8876 9.268C74.3556 8.97867 73.931 8.58667 73.6136 8.092C73.3056 7.588 73.1516 7.02333 73.1516 6.398C73.1516 5.754 73.3056 5.18467 73.6136 4.69C73.931 4.19533 74.3556 3.808 74.8876 3.528C75.4196 3.248 76.017 3.108 76.6796 3.108ZM76.6796 4.704C76.3623 4.704 76.073 4.774 75.8116 4.914C75.5503 5.04467 75.345 5.236 75.1956 5.488C75.0463 5.73067 74.9716 6.034 74.9716 6.398C74.9716 6.74333 75.0463 7.042 75.1956 7.294C75.345 7.53667 75.5503 7.728 75.8116 7.868C76.073 7.99867 76.3623 8.064 76.6796 8.064C76.997 8.064 77.2863 7.99867 77.5476 7.868C77.809 7.728 78.0143 7.53667 78.1636 7.294C78.313 7.042 78.3876 6.74333 78.3876 6.398C78.3876 6.034 78.313 5.73067 78.1636 5.488C78.0143 5.236 77.809 5.04467 77.5476 4.914C77.2863 4.774 76.997 4.704 76.6796 4.704ZM97.5028 2.282H99.3788V11.83H97.5028V2.282ZM88.8368 3.192H95.6828V4.69H88.8368V3.192ZM88.7108 10.276L88.5288 8.764C89.2194 8.764 89.9848 8.75933 90.8248 8.75C91.6648 8.73133 92.5188 8.70333 93.3868 8.666C94.2548 8.61933 95.0761 8.54933 95.8508 8.456L95.9628 9.828C95.1601 9.95867 94.3294 10.0567 93.4708 10.122C92.6121 10.1873 91.7721 10.2293 90.9508 10.248C90.1388 10.2667 89.3921 10.276 88.7108 10.276ZM89.8728 4.508H91.6648V8.932H89.8728V4.508ZM92.8828 4.508H94.6608V8.932H92.8828V4.508ZM95.9348 4.536H98.5248V6.034H95.9348V4.536ZM95.9348 7.154H98.5248V8.638H95.9348V7.154ZM90.8108 13.524H99.6588V15.022H90.8108V13.524ZM90.8108 11.116H92.6728V14.644H90.8108V11.116ZM104.25 4.326H105.734V5.782C105.734 6.52867 105.654 7.26133 105.496 7.98C105.346 8.69867 105.118 9.37533 104.81 10.01C104.511 10.6353 104.133 11.1907 103.676 11.676C103.218 12.152 102.686 12.53 102.08 12.81L101.016 11.34C101.557 11.088 102.028 10.7613 102.43 10.36C102.84 9.95867 103.176 9.51067 103.438 9.016C103.708 8.512 103.909 7.98467 104.04 7.434C104.18 6.874 104.25 6.32333 104.25 5.782V4.326ZM104.656 4.326H106.126V5.782C106.126 6.29533 106.191 6.818 106.322 7.35C106.462 7.87267 106.662 8.372 106.924 8.848C107.185 9.31467 107.516 9.73467 107.918 10.108C108.319 10.4813 108.795 10.78 109.346 11.004L108.324 12.488C107.708 12.2173 107.171 11.8533 106.714 11.396C106.256 10.9387 105.874 10.4113 105.566 9.814C105.258 9.21667 105.029 8.57733 104.88 7.896C104.73 7.20533 104.656 6.50067 104.656 5.782V4.326ZM101.534 3.514H108.814V5.054H101.534V3.514ZM110.018 2.282H111.88V15.246H110.018V2.282ZM117.191 10.808H118.269C118.997 10.808 119.678 10.8033 120.313 10.794C120.947 10.7753 121.568 10.7427 122.175 10.696C122.781 10.64 123.411 10.5653 124.065 10.472L124.233 11.942C123.579 12.0447 122.935 12.124 122.301 12.18C121.675 12.236 121.031 12.2733 120.369 12.292C119.715 12.3013 119.015 12.306 118.269 12.306H117.191V10.808ZM117.191 3.346H123.281V4.858H119.053V11.298H117.191V3.346ZM118.605 6.958H123.099V8.414H118.605V6.958ZM124.961 2.282H126.837V15.246H124.961V2.282ZM126.431 7.196H128.713V8.722H126.431V7.196ZM138.176 2.254H140.038V15.26H138.176V2.254ZM133.052 3.164C133.714 3.164 134.302 3.35533 134.816 3.738C135.329 4.11133 135.73 4.648 136.02 5.348C136.318 6.03867 136.468 6.85533 136.468 7.798C136.468 8.75 136.318 9.576 136.02 10.276C135.73 10.9667 135.329 11.5033 134.816 11.886C134.302 12.2593 133.714 12.446 133.052 12.446C132.398 12.446 131.815 12.2593 131.302 11.886C130.788 11.5033 130.382 10.9667 130.084 10.276C129.794 9.576 129.65 8.75 129.65 7.798C129.65 6.85533 129.794 6.03867 130.084 5.348C130.382 4.648 130.788 4.11133 131.302 3.738C131.815 3.35533 132.398 3.164 133.052 3.164ZM133.052 4.858C132.734 4.858 132.454 4.97 132.212 5.194C131.969 5.418 131.778 5.74933 131.638 6.188C131.507 6.61733 131.442 7.154 131.442 7.798C131.442 8.43267 131.507 8.974 131.638 9.422C131.778 9.86067 131.969 10.192 132.212 10.416C132.454 10.64 132.734 10.752 133.052 10.752C133.378 10.752 133.663 10.64 133.906 10.416C134.148 10.192 134.335 9.86067 134.466 9.422C134.606 8.974 134.676 8.43267 134.676 7.798C134.676 7.154 134.606 6.61733 134.466 6.188C134.335 5.74933 134.148 5.418 133.906 5.194C133.663 4.97 133.378 4.858 133.052 4.858ZM141.899 7.294H153.617V8.764H141.899V7.294ZM143.341 5.138H152.231V6.608H143.341V5.138ZM143.341 2.52H152.119V3.99H145.189V6.412H143.341V2.52ZM143.215 9.492H152.175V12.936H145.077V14.042H143.229V11.62H150.341V10.906H143.215V9.492ZM143.229 13.706H152.525V15.134H143.229V13.706Z" fill="#6A7383"/>
<path d="M66.8409 82H56.5284V52.9091H66.9261C69.8523 52.9091 72.3712 53.4915 74.483 54.6562C76.5947 55.8116 78.2188 57.4735 79.3551 59.642C80.5009 61.8106 81.0739 64.4053 81.0739 67.4261C81.0739 70.4564 80.5009 73.0606 79.3551 75.2386C78.2188 77.4167 76.5852 79.0881 74.4545 80.2528C72.3333 81.4176 69.7955 82 66.8409 82ZM62.679 76.7301H66.5852C68.4034 76.7301 69.9328 76.4081 71.1733 75.7642C72.4233 75.1108 73.3608 74.1023 73.9858 72.7386C74.6203 71.3655 74.9375 69.5947 74.9375 67.4261C74.9375 65.2765 74.6203 63.5199 73.9858 62.1562C73.3608 60.7926 72.428 59.7888 71.1875 59.1449C69.947 58.5009 68.4176 58.179 66.5994 58.179H62.679V76.7301ZM98.3101 65.054V69.8551H85.043V65.054H98.3101ZM115.266 52.9091V82H109.115V58.7472H108.945L102.283 62.9233V57.4688L109.485 52.9091H115.266Z" fill="#4B7D9D"/>
<path d="M1.05398 131V130.105L4.41477 126.426C4.80919 125.995 5.134 125.621 5.3892 125.303C5.64441 124.981 5.83333 124.679 5.95597 124.398C6.08191 124.113 6.14489 123.814 6.14489 123.503C6.14489 123.145 6.05871 122.835 5.88636 122.573C5.71733 122.311 5.48532 122.109 5.19034 121.967C4.89536 121.824 4.56392 121.753 4.19602 121.753C3.80492 121.753 3.46354 121.834 3.17188 121.996C2.88352 122.156 2.6598 122.379 2.50071 122.668C2.34493 122.956 2.26705 123.294 2.26705 123.682H1.09375C1.09375 123.085 1.2313 122.562 1.50639 122.111C1.78149 121.66 2.15601 121.309 2.62997 121.057C3.10724 120.805 3.64252 120.679 4.2358 120.679C4.83239 120.679 5.36103 120.805 5.82173 121.057C6.28243 121.309 6.6437 121.648 6.90554 122.076C7.16738 122.504 7.2983 122.979 7.2983 123.503C7.2983 123.877 7.23035 124.244 7.09446 124.602C6.96188 124.956 6.72988 125.352 6.39844 125.79C6.07031 126.224 5.61458 126.754 5.03125 127.381L2.74432 129.827V129.906H7.47727V131H1.05398ZM12.5716 131.139C11.8225 131.139 11.1845 130.935 10.6575 130.528C10.1305 130.117 9.72781 129.522 9.4494 128.743C9.17099 127.961 9.03179 127.016 9.03179 125.909C9.03179 124.809 9.17099 123.869 9.4494 123.09C9.73113 122.308 10.1355 121.711 10.6625 121.3C11.1928 120.886 11.8291 120.679 12.5716 120.679C13.314 120.679 13.9487 120.886 14.4757 121.3C15.006 121.711 15.4103 122.308 15.6888 123.09C15.9705 123.869 16.1113 124.809 16.1113 125.909C16.1113 127.016 15.9721 127.961 15.6937 128.743C15.4153 129.522 15.0126 130.117 14.4856 130.528C13.9586 130.935 13.3206 131.139 12.5716 131.139ZM12.5716 130.045C13.314 130.045 13.8907 129.687 14.3017 128.972C14.7127 128.256 14.9182 127.235 14.9182 125.909C14.9182 125.027 14.8237 124.277 14.6348 123.657C14.4492 123.037 14.1807 122.565 13.8294 122.24C13.4814 121.915 13.0621 121.753 12.5716 121.753C11.8358 121.753 11.2607 122.116 10.8464 122.842C10.4321 123.564 10.225 124.587 10.225 125.909C10.225 126.791 10.3178 127.54 10.5034 128.156C10.689 128.773 10.9558 129.242 11.3038 129.563C11.6551 129.885 12.0777 130.045 12.5716 130.045ZM17.7205 131V130.105L21.0813 126.426C21.4757 125.995 21.8006 125.621 22.0558 125.303C22.311 124.981 22.4999 124.679 22.6225 124.398C22.7485 124.113 22.8114 123.814 22.8114 123.503C22.8114 123.145 22.7253 122.835 22.5529 122.573C22.3839 122.311 22.1519 122.109 21.8569 121.967C21.5619 121.824 21.2305 121.753 20.8626 121.753C20.4715 121.753 20.1301 121.834 19.8384 121.996C19.5501 122.156 19.3264 122.379 19.1673 122.668C19.0115 122.956 18.9336 123.294 18.9336 123.682H17.7603C17.7603 123.085 17.8979 122.562 18.173 122.111C18.448 121.66 18.8226 121.309 19.2965 121.057C19.7738 120.805 20.3091 120.679 20.9024 120.679C21.4989 120.679 22.0276 120.805 22.4883 121.057C22.949 121.309 23.3103 121.648 23.5721 122.076C23.8339 122.504 23.9649 122.979 23.9649 123.503C23.9649 123.877 23.8969 124.244 23.761 124.602C23.6284 124.956 23.3964 125.352 23.065 125.79C22.7369 126.224 22.2811 126.754 21.6978 127.381L19.4109 129.827V129.906H24.1438V131H17.7205ZM29.2978 131.139C28.8802 131.133 28.4626 131.053 28.0449 130.901C27.6273 130.748 27.2462 130.491 26.9015 130.13C26.5568 129.765 26.28 129.273 26.0712 128.653C25.8624 128.03 25.758 127.248 25.758 126.307C25.758 125.405 25.8425 124.607 26.0116 123.911C26.1806 123.211 26.4259 122.623 26.7474 122.146C27.0689 121.665 27.4566 121.3 27.9107 121.052C28.3681 120.803 28.8835 120.679 29.4569 120.679C30.027 120.679 30.5341 120.793 30.9782 121.022C31.4256 121.247 31.7902 121.562 32.0719 121.967C32.3537 122.371 32.5359 122.837 32.6188 123.364H31.4057C31.293 122.906 31.0743 122.527 30.7495 122.225C30.4247 121.924 29.9938 121.773 29.4569 121.773C28.668 121.773 28.0466 122.116 27.5925 122.802C27.1418 123.488 26.9147 124.451 26.9114 125.69H26.991C27.1766 125.409 27.397 125.168 27.6522 124.969C27.9107 124.767 28.1957 124.612 28.5073 124.502C28.8189 124.393 29.1486 124.338 29.4966 124.338C30.08 124.338 30.6136 124.484 31.0975 124.776C31.5814 125.064 31.9692 125.463 32.2609 125.974C32.5525 126.481 32.6984 127.062 32.6984 127.719C32.6984 128.348 32.5575 128.925 32.2758 129.449C31.994 129.969 31.598 130.384 31.0876 130.692C30.5805 130.997 29.9839 131.146 29.2978 131.139ZM29.2978 130.045C29.7154 130.045 30.0899 129.941 30.4214 129.732C30.7561 129.523 31.0196 129.243 31.2118 128.892C31.4074 128.541 31.5052 128.15 31.5052 127.719C31.5052 127.298 31.4107 126.915 31.2218 126.57C31.0362 126.222 30.7793 125.946 30.4512 125.74C30.1264 125.535 29.7552 125.432 29.3376 125.432C29.0227 125.432 28.7294 125.495 28.4576 125.621C28.1858 125.743 27.9472 125.912 27.7417 126.128C27.5395 126.343 27.3804 126.59 27.2644 126.869C27.1484 127.144 27.0904 127.434 27.0904 127.739C27.0904 128.143 27.1849 128.521 27.3738 128.872C27.566 129.223 27.8279 129.507 28.1593 129.722C28.494 129.938 28.8735 130.045 29.2978 130.045ZM43.2735 119.436H44.4355V128.816H43.2735V119.436ZM39.6895 121.074H43.7075V122.012H39.6895V121.074ZM36.3295 130.86H44.7715V131.812H36.3295V130.86ZM36.3295 128.004H37.4915V131.28H36.3295V128.004ZM34.7615 120.346H35.9095V126.324H34.7615V120.346ZM34.7615 125.96H35.7135C36.6095 125.96 37.4961 125.927 38.3735 125.862C39.2601 125.797 40.1935 125.675 41.1735 125.498L41.2995 126.464C40.2915 126.651 39.3395 126.777 38.4435 126.842C37.5475 126.898 36.6375 126.926 35.7135 126.926H34.7615V125.96ZM39.6895 123.496H43.7075V124.434H39.6895V123.496ZM53.9509 131.139C53.2018 131.139 52.5638 130.935 52.0368 130.528C51.5098 130.117 51.1071 129.522 50.8287 128.743C50.5503 127.961 50.4111 127.016 50.4111 125.909C50.4111 124.809 50.5503 123.869 50.8287 123.09C51.1104 122.308 51.5148 121.711 52.0418 121.3C52.5721 120.886 53.2084 120.679 53.9509 120.679C54.6933 120.679 55.328 120.886 55.855 121.3C56.3853 121.711 56.7896 122.308 57.068 123.09C57.3498 123.869 57.4906 124.809 57.4906 125.909C57.4906 127.016 57.3514 127.961 57.073 128.743C56.7946 129.522 56.3919 130.117 55.8649 130.528C55.3379 130.935 54.6999 131.139 53.9509 131.139ZM53.9509 130.045C54.6933 130.045 55.27 129.687 55.681 128.972C56.092 128.256 56.2975 127.235 56.2975 125.909C56.2975 125.027 56.203 124.277 56.0141 123.657C55.8285 123.037 55.56 122.565 55.2087 122.24C54.8607 121.915 54.4414 121.753 53.9509 121.753C53.2151 121.753 52.64 122.116 52.2257 122.842C51.8114 123.564 51.6043 124.587 51.6043 125.909C51.6043 126.791 51.6971 127.54 51.8827 128.156C52.0683 128.773 52.3351 129.242 52.6831 129.563C53.0344 129.885 53.457 130.045 53.9509 130.045ZM62.5402 131.139C61.8839 131.139 61.2989 131.027 60.7852 130.801C60.2748 130.576 59.8688 130.263 59.5672 129.862C59.2689 129.457 59.1065 128.988 59.08 128.455H60.3328C60.3593 128.783 60.472 129.066 60.6709 129.305C60.8697 129.54 61.1299 129.722 61.4514 129.852C61.7729 129.981 62.1292 130.045 62.5203 130.045C62.9578 130.045 63.3456 129.969 63.6836 129.817C64.0217 129.664 64.2869 129.452 64.4791 129.18C64.6713 128.909 64.7675 128.594 64.7675 128.236C64.7675 127.861 64.6746 127.531 64.489 127.246C64.3034 126.958 64.0317 126.733 63.6737 126.57C63.3157 126.408 62.8782 126.327 62.3612 126.327H61.5459V125.233H62.3612C62.7656 125.233 63.1202 125.16 63.4251 125.014C63.7334 124.868 63.9737 124.663 64.146 124.398C64.3217 124.133 64.4095 123.821 64.4095 123.463C64.4095 123.118 64.3333 122.818 64.1808 122.563C64.0283 122.308 63.8129 122.109 63.5345 121.967C63.2594 121.824 62.9346 121.753 62.5601 121.753C62.2087 121.753 61.8773 121.817 61.5657 121.947C61.2575 122.073 61.0056 122.257 60.8101 122.499C60.6145 122.737 60.5085 123.026 60.4919 123.364H59.2987C59.3186 122.83 59.4793 122.363 59.7809 121.962C60.0826 121.557 60.477 121.242 60.9642 121.017C61.4547 120.792 61.9933 120.679 62.58 120.679C63.2097 120.679 63.7499 120.807 64.2007 121.062C64.6514 121.314 64.9978 121.647 65.2398 122.061C65.4817 122.475 65.6027 122.923 65.6027 123.403C65.6027 123.977 65.4519 124.466 65.1503 124.87C64.852 125.274 64.446 125.554 63.9322 125.71V125.79C64.5752 125.896 65.0773 126.169 65.4386 126.61C65.7999 127.048 65.9805 127.589 65.9805 128.236C65.9805 128.789 65.8297 129.286 65.5281 129.727C65.2298 130.165 64.8221 130.509 64.3051 130.761C63.788 131.013 63.1997 131.139 62.5402 131.139ZM70.7819 124.658H71.9299V126.926H70.7819V124.658ZM76.5779 119.436H77.7399V126.884H76.5779V119.436ZM67.4779 125.05L67.3379 124.196C68.1499 124.196 69.0179 124.191 69.9419 124.182C70.8753 124.163 71.8226 124.135 72.7839 124.098C73.7453 124.051 74.6786 123.977 75.5839 123.874L75.6539 124.63C74.7299 124.761 73.7873 124.859 72.8259 124.924C71.8739 124.98 70.9406 125.017 70.0259 125.036C69.1206 125.045 68.2713 125.05 67.4779 125.05ZM69.2559 127.346H77.7399V129.978H70.4319V131.406H69.2979V129.194H76.5919V128.172H69.2559V127.346ZM69.2979 131.098H78.1599V131.952H69.2979V131.098ZM74.0579 125.456H76.9559V126.212H74.0579V125.456ZM71.4259 119.674C72.0513 119.674 72.5973 119.749 73.0639 119.898C73.5306 120.047 73.8946 120.267 74.1559 120.556C74.4173 120.845 74.5479 121.186 74.5479 121.578C74.5479 121.961 74.4173 122.297 74.1559 122.586C73.8946 122.866 73.5306 123.085 73.0639 123.244C72.5973 123.393 72.0513 123.468 71.4259 123.468C70.8006 123.468 70.2499 123.393 69.7739 123.244C69.3073 123.085 68.9433 122.866 68.6819 122.586C68.4299 122.297 68.3039 121.961 68.3039 121.578C68.3039 121.186 68.4299 120.845 68.6819 120.556C68.9433 120.267 69.3073 120.047 69.7739 119.898C70.2499 119.749 70.8006 119.674 71.4259 119.674ZM71.4259 120.472C70.8099 120.472 70.3153 120.57 69.9419 120.766C69.5779 120.962 69.3959 121.233 69.3959 121.578C69.3959 121.905 69.5779 122.171 69.9419 122.376C70.3153 122.572 70.8099 122.67 71.4259 122.67C72.0419 122.67 72.5319 122.572 72.8959 122.376C73.2693 122.171 73.4559 121.905 73.4559 121.578C73.4559 121.233 73.2693 120.962 72.8959 120.766C72.5319 120.57 72.0419 120.472 71.4259 120.472ZM87.3113 131.139C86.5623 131.139 85.9243 130.935 85.3973 130.528C84.8703 130.117 84.4676 129.522 84.1892 128.743C83.9108 127.961 83.7716 127.016 83.7716 125.909C83.7716 124.809 83.9108 123.869 84.1892 123.09C84.4709 122.308 84.8752 121.711 85.4022 121.3C85.9325 120.886 86.5689 120.679 87.3113 120.679C88.0537 120.679 88.6885 120.886 89.2154 121.3C89.7457 121.711 90.1501 122.308 90.4285 123.09C90.7102 123.869 90.8511 124.809 90.8511 125.909C90.8511 127.016 90.7119 127.961 90.4335 128.743C90.1551 129.522 89.7524 130.117 89.2254 130.528C88.6984 130.935 88.0604 131.139 87.3113 131.139ZM87.3113 130.045C88.0537 130.045 88.6305 129.687 89.0414 128.972C89.4524 128.256 89.6579 127.235 89.6579 125.909C89.6579 125.027 89.5635 124.277 89.3745 123.657C89.1889 123.037 88.9205 122.565 88.5691 122.24C88.2211 121.915 87.8019 121.753 87.3113 121.753C86.5755 121.753 86.0005 122.116 85.5862 122.842C85.1719 123.564 84.9647 124.587 84.9647 125.909C84.9647 126.791 85.0575 127.54 85.2431 128.156C85.4287 128.773 85.6956 129.242 86.0436 129.563C86.3949 129.885 86.8175 130.045 87.3113 130.045ZM95.7018 120.679C96.1194 120.682 96.537 120.762 96.9546 120.918C97.3722 121.073 97.7534 121.332 98.0981 121.693C98.4428 122.051 98.7195 122.54 98.9283 123.16C99.1372 123.78 99.2416 124.557 99.2416 125.491C99.2416 126.396 99.1554 127.2 98.983 127.903C98.814 128.602 98.5687 129.192 98.2472 129.673C97.9291 130.153 97.5413 130.518 97.0839 130.766C96.6298 131.015 96.1161 131.139 95.5427 131.139C94.9726 131.139 94.4639 131.027 94.0164 130.801C93.5723 130.572 93.2077 130.256 92.9227 129.852C92.6409 129.444 92.4603 128.972 92.3808 128.435H93.5938C93.7032 128.902 93.9203 129.288 94.2451 129.593C94.5732 129.895 95.0058 130.045 95.5427 130.045C96.3282 130.045 96.948 129.702 97.4021 129.016C97.8595 128.33 98.0881 127.361 98.0881 126.108H98.0086C97.823 126.386 97.6026 126.627 97.3474 126.829C97.0922 127.031 96.8088 127.187 96.4972 127.296C96.1857 127.406 95.8542 127.46 95.5029 127.46C94.9196 127.46 94.3843 127.316 93.8971 127.028C93.4132 126.736 93.0254 126.337 92.7337 125.83C92.4454 125.319 92.3012 124.736 92.3012 124.08C92.3012 123.456 92.4404 122.886 92.7188 122.369C93.0005 121.849 93.395 121.435 93.9021 121.126C94.4125 120.818 95.0124 120.669 95.7018 120.679ZM95.7018 121.773C95.2842 121.773 94.908 121.877 94.5732 122.086C94.2418 122.291 93.9783 122.57 93.7827 122.921C93.5905 123.269 93.4944 123.655 93.4944 124.08C93.4944 124.504 93.5872 124.89 93.7728 125.238C93.9617 125.583 94.2186 125.858 94.5434 126.063C94.8715 126.265 95.2444 126.366 95.662 126.366C95.9769 126.366 96.2702 126.305 96.542 126.183C96.8138 126.057 97.0507 125.886 97.2529 125.67C97.4584 125.452 97.6192 125.205 97.7352 124.93C97.8512 124.651 97.9092 124.361 97.9092 124.06C97.9092 123.662 97.8131 123.289 97.6208 122.941C97.4319 122.593 97.1701 122.311 96.8353 122.096C96.5039 121.88 96.126 121.773 95.7018 121.773ZM104.119 119.884C104.753 119.884 105.313 120.005 105.799 120.248C106.293 120.481 106.681 120.808 106.961 121.228C107.241 121.648 107.381 122.138 107.381 122.698C107.381 123.249 107.241 123.739 106.961 124.168C106.681 124.588 106.293 124.915 105.799 125.148C105.313 125.381 104.753 125.498 104.119 125.498C103.493 125.498 102.933 125.381 102.439 125.148C101.944 124.915 101.552 124.588 101.263 124.168C100.983 123.739 100.843 123.249 100.843 122.698C100.843 122.138 100.983 121.648 101.263 121.228C101.552 120.808 101.944 120.481 102.439 120.248C102.933 120.005 103.493 119.884 104.119 119.884ZM104.119 120.85C103.708 120.85 103.339 120.929 103.013 121.088C102.695 121.237 102.443 121.452 102.257 121.732C102.07 122.012 101.977 122.334 101.977 122.698C101.977 123.062 102.07 123.384 102.257 123.664C102.443 123.935 102.695 124.149 103.013 124.308C103.339 124.467 103.708 124.546 104.119 124.546C104.529 124.546 104.893 124.467 105.211 124.308C105.537 124.149 105.794 123.935 105.981 123.664C106.167 123.384 106.261 123.062 106.261 122.698C106.261 122.334 106.167 122.012 105.981 121.732C105.794 121.452 105.537 121.237 105.211 121.088C104.893 120.929 104.529 120.85 104.119 120.85ZM109.775 119.422H110.937V125.904H109.775V119.422ZM102.747 126.534H110.937V129.6H103.909V131.504H102.789V128.732H109.789V127.458H102.747V126.534ZM102.789 130.986H111.371V131.924H102.789V130.986ZM118.3 124.35H120.68V125.302H118.3V124.35ZM122.808 119.422H123.928V132.092H122.808V119.422ZM120.288 119.688H121.394V131.448H120.288V119.688ZM116.004 120.486C116.554 120.486 117.03 120.663 117.432 121.018C117.842 121.373 118.16 121.881 118.384 122.544C118.608 123.207 118.72 123.986 118.72 124.882C118.72 125.787 118.608 126.571 118.384 127.234C118.16 127.897 117.842 128.41 117.432 128.774C117.03 129.129 116.554 129.306 116.004 129.306C115.472 129.306 115 129.129 114.59 128.774C114.188 128.41 113.876 127.897 113.652 127.234C113.428 126.571 113.316 125.787 113.316 124.882C113.316 123.986 113.428 123.207 113.652 122.544C113.876 121.881 114.188 121.373 114.59 121.018C115 120.663 115.472 120.486 116.004 120.486ZM116.004 121.564C115.677 121.564 115.392 121.699 115.15 121.97C114.907 122.241 114.72 122.623 114.59 123.118C114.459 123.613 114.394 124.201 114.394 124.882C114.394 125.563 114.459 126.156 114.59 126.66C114.72 127.155 114.907 127.537 115.15 127.808C115.392 128.079 115.677 128.214 116.004 128.214C116.34 128.214 116.629 128.079 116.872 127.808C117.124 127.537 117.315 127.155 117.446 126.66C117.576 126.156 117.642 125.563 117.642 124.882C117.642 124.201 117.576 123.613 117.446 123.118C117.315 122.623 117.124 122.241 116.872 121.97C116.629 121.699 116.34 121.564 116.004 121.564ZM135.34 120.948H138.938V121.872H135.34V120.948ZM135.34 123.566H138.938V124.49H135.34V123.566ZM132.876 119.856C133.501 119.856 134.057 119.977 134.542 120.22C135.037 120.463 135.424 120.803 135.704 121.242C135.984 121.671 136.124 122.171 136.124 122.74C136.124 123.3 135.984 123.799 135.704 124.238C135.424 124.667 135.037 125.008 134.542 125.26C134.057 125.503 133.501 125.624 132.876 125.624C132.241 125.624 131.677 125.503 131.182 125.26C130.697 125.008 130.314 124.667 130.034 124.238C129.754 123.799 129.614 123.3 129.614 122.74C129.614 122.171 129.754 121.671 130.034 121.242C130.314 120.803 130.697 120.463 131.182 120.22C131.677 119.977 132.241 119.856 132.876 119.856ZM132.876 120.808C132.465 120.808 132.097 120.892 131.77 121.06C131.443 121.219 131.187 121.447 131 121.746C130.813 122.035 130.72 122.367 130.72 122.74C130.72 123.113 130.813 123.449 131 123.748C131.187 124.037 131.443 124.266 131.77 124.434C132.097 124.593 132.465 124.672 132.876 124.672C133.287 124.672 133.651 124.593 133.968 124.434C134.295 124.266 134.551 124.037 134.738 123.748C134.925 123.449 135.018 123.113 135.018 122.74C135.018 122.367 134.925 122.035 134.738 121.746C134.551 121.447 134.295 121.219 133.968 121.06C133.651 120.892 133.287 120.808 132.876 120.808ZM138.672 119.422H139.82V125.904H138.672V119.422ZM131.672 126.562H139.82V129.614H132.848V131.504H131.7V128.732H138.672V127.486H131.672V126.562ZM131.7 130.986H140.296V131.924H131.7V130.986ZM151.229 119.436H152.391V126.394H151.229V119.436ZM142.675 125.162H143.697C144.462 125.162 145.172 125.153 145.825 125.134C146.488 125.115 147.132 125.078 147.757 125.022C148.382 124.957 149.031 124.873 149.703 124.77L149.843 125.722C149.143 125.834 148.471 125.918 147.827 125.974C147.192 126.03 146.539 126.072 145.867 126.1C145.204 126.119 144.481 126.128 143.697 126.128H142.675V125.162ZM142.647 120.038H148.387V123.482H143.809V125.792H142.675V122.572H147.253V120.99H142.647V120.038ZM144.215 127.024H145.363V128.508H151.243V127.024H152.391V131.924H144.215V127.024ZM145.363 129.432V130.972H151.243V129.432H145.363ZM163.828 119.422H164.976V132.092H163.828V119.422ZM155.414 120.668H156.562V128.508H155.414V120.668ZM155.414 127.822H156.45C157.42 127.822 158.405 127.78 159.404 127.696C160.412 127.603 161.448 127.449 162.512 127.234L162.666 128.214C161.564 128.447 160.505 128.611 159.488 128.704C158.47 128.788 157.458 128.83 156.45 128.83H155.414V127.822ZM175.783 119.422H176.945V132.106H175.783V119.422ZM176.679 124.42H179.017V125.386H176.679V124.42ZM167.761 127.962H168.755C169.529 127.962 170.239 127.953 170.883 127.934C171.536 127.906 172.161 127.859 172.759 127.794C173.365 127.729 173.981 127.64 174.607 127.528L174.747 128.522C174.093 128.634 173.459 128.723 172.843 128.788C172.236 128.853 171.601 128.895 170.939 128.914C170.276 128.933 169.548 128.942 168.755 128.942H167.761V127.962ZM167.761 120.654H173.627V121.606H168.909V128.41H167.761V120.654Z" fill="#4A5568"/>
</svg>
