<svg width="188" height="189" viewBox="0 0 188 189" fill="none" xmlns="http://www.w3.org/2000/svg">
<path d="M188 94.5C188 146.691 145.915 189 94 189C42.0852 189 0 146.691 0 94.5C0 42.3091 42.0852 0 94 0C145.915 0 188 42.3091 188 94.5Z" fill="#7498BA"/>
<circle cx="94" cy="95" r="81" fill="#F8F9FB"/>
<path d="M70.3068 82.4091C71.5038 82.4091 72.6553 82.6098 73.7614 83.0114C74.875 83.4129 75.8674 84.053 76.7386 84.9318C77.6174 85.8106 78.3106 86.9773 78.8182 88.4318C79.3333 89.8788 79.5947 91.6553 79.6023 93.7614C79.6023 95.7386 79.3788 97.5038 78.9318 99.0568C78.4924 100.602 77.8598 101.917 77.0341 103C76.2083 104.083 75.2121 104.909 74.0455 105.477C72.8788 106.038 71.5758 106.318 70.1364 106.318C68.5833 106.318 67.2121 106.019 66.0227 105.42C64.8333 104.814 63.875 103.992 63.1477 102.955C62.428 101.909 61.9924 100.735 61.8409 99.4318H66.6932C66.8826 100.28 67.2803 100.939 67.8864 101.409C68.4924 101.871 69.2424 102.102 70.1364 102.102C71.6515 102.102 72.803 101.443 73.5909 100.125C74.3788 98.7992 74.7765 96.9848 74.7841 94.6818H74.625C74.2765 95.3636 73.8068 95.9508 73.2159 96.4432C72.625 96.928 71.947 97.303 71.1818 97.5682C70.4242 97.8333 69.6174 97.9659 68.7614 97.9659C67.3902 97.9659 66.1667 97.6439 65.0909 97C64.0152 96.3561 63.1667 95.4697 62.5455 94.3409C61.9242 93.2121 61.6136 91.9242 61.6136 90.4773C61.6061 88.9167 61.9659 87.5265 62.6932 86.3068C63.4205 85.0871 64.4356 84.1326 65.7386 83.4432C67.0492 82.7462 68.572 82.4015 70.3068 82.4091ZM70.3409 86.2727C69.5758 86.2727 68.8939 86.4545 68.2955 86.8182C67.7045 87.1818 67.2348 87.6705 66.8864 88.2841C66.5455 88.8977 66.3788 89.5833 66.3864 90.3409C66.3864 91.1061 66.553 91.7955 66.8864 92.4091C67.2273 93.0152 67.6894 93.5 68.2727 93.8636C68.8636 94.2197 69.5379 94.3977 70.2955 94.3977C70.8636 94.3977 71.3902 94.2917 71.875 94.0795C72.3598 93.8674 72.7803 93.5758 73.1364 93.2045C73.5 92.8258 73.7841 92.3902 73.9886 91.8977C74.1932 91.4053 74.2955 90.8826 74.2955 90.3295C74.2879 89.5947 74.1136 88.9205 73.7727 88.3068C73.4318 87.6932 72.9621 87.2008 72.3636 86.8295C71.7652 86.4583 71.0909 86.2727 70.3409 86.2727ZM90.7918 82.4091C91.9888 82.4091 93.1403 82.6098 94.2464 83.0114C95.36 83.4129 96.3524 84.053 97.2236 84.9318C98.1024 85.8106 98.7956 86.9773 99.3032 88.4318C99.8183 89.8788 100.08 91.6553 100.087 93.7614C100.087 95.7386 99.8638 97.5038 99.4168 99.0568C98.9774 100.602 98.3448 101.917 97.5191 103C96.6933 104.083 95.6971 104.909 94.5305 105.477C93.3638 106.038 92.0608 106.318 90.6214 106.318C89.0683 106.318 87.6971 106.019 86.5077 105.42C85.3183 104.814 84.36 103.992 83.6327 102.955C82.913 101.909 82.4774 100.735 82.3259 99.4318H87.1782C87.3676 100.28 87.7653 100.939 88.3714 101.409C88.9774 101.871 89.7274 102.102 90.6214 102.102C92.1365 102.102 93.288 101.443 94.0759 100.125C94.8638 98.7992 95.2615 96.9848 95.2691 94.6818H95.11C94.7615 95.3636 94.2918 95.9508 93.7009 96.4432C93.11 96.928 92.432 97.303 91.6668 97.5682C90.9092 97.8333 90.1024 97.9659 89.2464 97.9659C87.8752 97.9659 86.6517 97.6439 85.5759 97C84.5002 96.3561 83.6517 95.4697 83.0305 94.3409C82.4092 93.2121 82.0986 91.9242 82.0986 90.4773C82.0911 88.9167 82.4509 87.5265 83.1782 86.3068C83.9055 85.0871 84.9206 84.1326 86.2236 83.4432C87.5342 82.7462 89.057 82.4015 90.7918 82.4091ZM90.8259 86.2727C90.0608 86.2727 89.3789 86.4545 88.7805 86.8182C88.1895 87.1818 87.7198 87.6705 87.3714 88.2841C87.0305 88.8977 86.8638 89.5833 86.8714 90.3409C86.8714 91.1061 87.038 91.7955 87.3714 92.4091C87.7123 93.0152 88.1744 93.5 88.7577 93.8636C89.3486 94.2197 90.0229 94.3977 90.7805 94.3977C91.3486 94.3977 91.8752 94.2917 92.36 94.0795C92.8448 93.8674 93.2653 93.5758 93.6214 93.2045C93.985 92.8258 94.2691 92.3902 94.4736 91.8977C94.6782 91.4053 94.7805 90.8826 94.7805 90.3295C94.7729 89.5947 94.5986 88.9205 94.2577 88.3068C93.9168 87.6932 93.4471 87.2008 92.8486 86.8295C92.2502 86.4583 91.5759 86.2727 90.8259 86.2727ZM115.595 101.636V100.409C115.595 99.4773 115.792 98.6212 116.186 97.8409C116.587 97.053 117.167 96.4242 117.925 95.9545C118.69 95.4773 119.622 95.2386 120.72 95.2386C121.834 95.2386 122.769 95.4735 123.527 95.9432C124.292 96.4129 124.868 97.0417 125.254 97.8295C125.648 98.6098 125.845 99.4697 125.845 100.409V101.636C125.845 102.568 125.648 103.428 125.254 104.216C124.86 104.996 124.281 105.621 123.515 106.091C122.75 106.568 121.818 106.807 120.72 106.807C119.606 106.807 118.671 106.568 117.913 106.091C117.156 105.621 116.58 104.996 116.186 104.216C115.792 103.428 115.595 102.568 115.595 101.636ZM118.902 100.409V101.636C118.902 102.174 119.031 102.682 119.288 103.159C119.553 103.636 120.031 103.875 120.72 103.875C121.409 103.875 121.879 103.64 122.129 103.17C122.387 102.701 122.515 102.189 122.515 101.636V100.409C122.515 99.8561 122.394 99.3409 122.152 98.8636C121.909 98.3864 121.432 98.1477 120.72 98.1477C120.038 98.1477 119.565 98.3864 119.3 98.8636C119.034 99.3409 118.902 99.8561 118.902 100.409ZM103.652 88.3182V87.0909C103.652 86.1515 103.853 85.2917 104.254 84.5114C104.656 83.7235 105.235 83.0947 105.993 82.625C106.758 82.1553 107.682 81.9205 108.765 81.9205C109.887 81.9205 110.826 82.1553 111.584 82.625C112.341 83.0947 112.917 83.7235 113.311 84.5114C113.705 85.2917 113.902 86.1515 113.902 87.0909V88.3182C113.902 89.2576 113.701 90.1174 113.3 90.8977C112.906 91.678 112.326 92.303 111.561 92.7727C110.803 93.2348 109.872 93.4659 108.765 93.4659C107.659 93.4659 106.724 93.2311 105.959 92.7614C105.201 92.2841 104.625 91.6591 104.231 90.8864C103.845 90.1061 103.652 89.25 103.652 88.3182ZM106.981 87.0909V88.3182C106.981 88.8712 107.11 89.3826 107.368 89.8523C107.633 90.322 108.099 90.5568 108.765 90.5568C109.462 90.5568 109.936 90.322 110.186 89.8523C110.443 89.3826 110.572 88.8712 110.572 88.3182V87.0909C110.572 86.5379 110.451 86.0227 110.209 85.5455C109.966 85.0682 109.485 84.8295 108.765 84.8295C108.091 84.8295 107.625 85.072 107.368 85.5568C107.11 86.0417 106.981 86.553 106.981 87.0909ZM105.152 106L121.152 82.7273H124.129L108.129 106H105.152Z" fill="#4B7D9D"/>
</svg>
