<svg width="321" height="60" viewBox="0 0 321 60" fill="none" xmlns="http://www.w3.org/2000/svg">
<rect width="321" height="60" rx="12" fill="#7498BA"/>
<path d="M124.376 22.888H126.008V25.368C126.008 26.2213 125.944 27.0533 125.816 27.864C125.699 28.664 125.507 29.4213 125.24 30.136C124.973 30.84 124.627 31.48 124.2 32.056C123.784 32.6213 123.283 33.0853 122.696 33.448L121.368 31.864C121.923 31.5333 122.392 31.128 122.776 30.648C123.16 30.168 123.469 29.64 123.704 29.064C123.939 28.488 124.109 27.8907 124.216 27.272C124.323 26.6427 124.376 26.008 124.376 25.368V22.888ZM124.792 22.888H126.44V25.224C126.44 25.864 126.488 26.488 126.584 27.096C126.68 27.704 126.829 28.2747 127.032 28.808C127.245 29.3413 127.528 29.8267 127.88 30.264C128.232 30.6907 128.669 31.0427 129.192 31.32L127.96 33.016C127.363 32.6747 126.856 32.2373 126.44 31.704C126.035 31.1707 125.709 30.5627 125.464 29.88C125.229 29.1973 125.059 28.4613 124.952 27.672C124.845 26.8827 124.792 26.0667 124.792 25.224V22.888ZM132.344 21.592H134.376V36.408H132.344V21.592ZM130.568 27.352H133.032V29.064H130.568V27.352ZM129.16 21.832H131.144V35.752H129.16V21.832ZM149.694 21.608H151.838V32.52H149.694V21.608ZM139.79 22.648H147.614V24.36H139.79V22.648ZM139.646 30.744L139.438 29.016C140.227 29.016 141.102 29.0107 142.062 29C143.022 28.9787 143.998 28.9467 144.99 28.904C145.982 28.8507 146.921 28.7707 147.806 28.664L147.934 30.232C147.017 30.3813 146.067 30.4933 145.086 30.568C144.105 30.6427 143.145 30.6907 142.206 30.712C141.278 30.7333 140.425 30.744 139.646 30.744ZM140.974 24.152H143.022V29.208H140.974V24.152ZM144.414 24.152H146.446V29.208H144.414V24.152ZM147.902 24.184H150.862V25.896H147.902V24.184ZM147.902 27.176H150.862V28.872H147.902V27.176ZM142.046 34.456H152.158V36.168H142.046V34.456ZM142.046 31.704H144.174V35.736H142.046V31.704ZM157.405 23.944H159.101V25.608C159.101 26.4613 159.01 27.2987 158.829 28.12C158.658 28.9413 158.397 29.7147 158.045 30.44C157.703 31.1547 157.271 31.7893 156.749 32.344C156.226 32.888 155.618 33.32 154.925 33.64L153.709 31.96C154.327 31.672 154.866 31.2987 155.325 30.84C155.794 30.3813 156.178 29.8693 156.477 29.304C156.786 28.728 157.015 28.1253 157.165 27.496C157.325 26.856 157.405 26.2267 157.405 25.608V23.944ZM157.869 23.944H159.549V25.608C159.549 26.1947 159.623 26.792 159.773 27.4C159.933 27.9973 160.162 28.568 160.461 29.112C160.759 29.6453 161.138 30.1253 161.597 30.552C162.055 30.9787 162.599 31.32 163.229 31.576L162.061 33.272C161.357 32.9627 160.743 32.5467 160.221 32.024C159.698 31.5013 159.261 30.8987 158.909 30.216C158.557 29.5333 158.295 28.8027 158.125 28.024C157.954 27.2347 157.869 26.4293 157.869 25.608V23.944ZM154.301 23.016H162.621V24.776H154.301V23.016ZM163.997 21.608H166.125V36.424H163.997V21.608ZM174.291 22.664H175.923V24.328C175.923 25.1707 175.811 25.992 175.587 26.792C175.363 27.5813 175.011 28.2907 174.531 28.92C174.051 29.5387 173.416 30.0187 172.627 30.36L171.539 28.792C172.2 28.504 172.733 28.12 173.139 27.64C173.544 27.16 173.837 26.632 174.019 26.056C174.2 25.48 174.291 24.904 174.291 24.328V22.664ZM174.803 22.664H176.419V24.328C176.419 24.7547 176.467 25.192 176.563 25.64C176.669 26.0773 176.829 26.504 177.043 26.92C177.256 27.3253 177.539 27.6987 177.891 28.04C178.253 28.3813 178.691 28.664 179.203 28.888L178.307 30.584C177.656 30.3173 177.107 29.9653 176.659 29.528C176.211 29.08 175.848 28.5733 175.571 28.008C175.304 27.4427 175.107 26.8453 174.979 26.216C174.861 25.5867 174.803 24.9573 174.803 24.328V22.664ZM180.179 22.664H181.795V24.328C181.795 25.1813 181.683 26.024 181.459 26.856C181.235 27.6773 180.867 28.4187 180.355 29.08C179.853 29.7307 179.171 30.232 178.307 30.584L177.411 28.888C178.093 28.5893 178.637 28.1947 179.043 27.704C179.448 27.2027 179.736 26.6587 179.907 26.072C180.088 25.4853 180.179 24.904 180.179 24.328V22.664ZM180.707 22.664H182.339V24.328C182.339 24.9253 182.429 25.512 182.611 26.088C182.792 26.664 183.085 27.1867 183.491 27.656C183.896 28.1253 184.429 28.504 185.091 28.792L184.003 30.36C183.213 30.0293 182.579 29.5547 182.099 28.936C181.619 28.3173 181.267 27.6133 181.043 26.824C180.819 26.024 180.707 25.192 180.707 24.328V22.664ZM171.603 32.856H185.027V34.6H171.603V32.856ZM196.225 21.592H198.353V36.408H196.225V21.592ZM191.857 23.128H193.953C193.953 24.2587 193.841 25.3413 193.617 26.376C193.404 27.4 193.041 28.3653 192.529 29.272C192.028 30.1787 191.335 31.0213 190.449 31.8C189.575 32.568 188.481 33.272 187.169 33.912L186.049 32.232C187.479 31.5387 188.615 30.776 189.457 29.944C190.311 29.1013 190.924 28.152 191.297 27.096C191.671 26.0293 191.857 24.8347 191.857 23.512V23.128ZM186.849 23.128H192.849V24.824H186.849V23.128Z" fill="#F8F9FA"/>
</svg>
