<svg width="110" height="135" viewBox="0 0 110 135" fill="none" xmlns="http://www.w3.org/2000/svg">
<path d="M90.078 17.9843H19.922C19.5001 17.9843 19.1564 17.6406 19.1564 17.2187V10.7656C19.1564 10.3437 19.5001 10 19.922 10H90.063C90.4849 10 90.8286 10.3438 90.8286 10.7656V17.2031C90.8442 17.6406 90.4999 17.9843 90.078 17.9843ZM20.703 16.4374H89.312V11.5312H20.703V16.4374Z" fill="#6082A1"/>
<path d="M20.703 16.4374H89.312V11.5312H20.703V16.4374Z" fill="#6082A1"/>
<path d="M66.359 103.547C65.9531 103.547 65.6252 103.235 65.5935 102.83L65.5934 102.828C65.2027 97.2972 60.5465 92.969 54.9994 92.969C49.4523 92.969 44.7964 97.2971 44.4214 102.828C44.4201 102.845 44.4547 102.861 44.5222 102.875C46.1435 103.22 66.749 102.858 66.359 102.828C66.3167 102.825 66.0461 102.826 65.5935 102.83C62.275 102.855 49.1724 103.028 44.5222 102.875C43.4859 102.841 42.8694 102.791 42.8745 102.719C43.312 96.3909 48.6401 91.438 54.9995 91.438C61.3589 91.438 66.6875 96.3911 67.1405 102.719C67.1717 103.141 66.8436 103.516 66.4217 103.547H66.359Z" fill="#F5A855"/>
<path d="M65.5935 102.83L65.5934 102.828C65.2027 97.2972 60.5465 92.969 54.9994 92.969C49.4523 92.969 44.7964 97.2971 44.4214 102.828C44.4201 102.845 44.4547 102.861 44.5222 102.875C49.1724 103.028 62.275 102.855 65.5935 102.83Z" fill="#F5A855"/>
<path d="M90.078 110H19.922C19.5001 110 19.1564 109.656 19.1564 109.234V102.797C19.1564 102.375 19.5001 102.031 19.922 102.031H90.063C90.4849 102.031 90.8286 102.375 90.8286 102.797V109.234C90.8442 109.656 90.4999 110 90.078 110ZM20.703 108.469H89.312V103.563H20.703V108.469Z" fill="#6082A1"/>
<path d="M20.703 108.469H89.312V103.563H20.703V108.469Z" fill="#6082A1"/>
<path d="M30.703 103.562C30.2811 103.562 29.9374 103.218 29.9374 102.796V87.9994C29.9374 85.4994 30.2811 83.1869 30.953 81.1244C33.328 73.8275 37.828 68.6084 44.703 65.1714C46.0624 64.4839 47.0155 63.6402 47.5468 62.6558C48.3593 61.1558 48.2499 59.4996 47.2343 57.7027C46.6874 56.7184 45.7343 55.8902 44.4374 55.2183C37.6562 51.7339 33.2344 46.5152 30.9374 39.2803C30.2811 37.2334 29.953 34.9522 29.953 32.4991V17.2021C29.953 16.7803 30.2967 16.4365 30.7186 16.4365C31.1405 16.4365 31.4842 16.7803 31.4842 17.2021V32.4831C31.4842 34.78 31.7967 36.8893 32.4061 38.7956C34.578 45.6237 38.7499 50.5456 45.1561 53.8266C46.7342 54.6391 47.8905 55.686 48.5936 56.936C49.8592 59.186 49.9686 61.4048 48.9217 63.3735C48.2499 64.6391 47.0623 65.7016 45.4217 66.5297C38.9373 69.7797 34.6877 74.7016 32.4527 81.5917C31.8277 83.4979 31.5152 85.6542 31.5152 87.9979V102.795C31.4684 103.217 31.1246 103.561 30.7027 103.561L30.703 103.562Z" fill="#6082A1"/>
<path d="M79.281 103.562C78.8591 103.562 78.5154 103.218 78.5154 102.796L78.531 87.9993C78.531 85.6555 78.2185 83.5149 77.5935 81.5931C75.3591 74.7025 71.1091 69.7811 64.6245 66.5311C62.9683 65.703 61.7964 64.6405 61.1089 63.3749C60.062 61.4218 60.1714 59.203 61.437 56.953C62.1401 55.703 63.2964 54.6561 64.8745 53.8436C71.2807 50.5467 75.4365 45.6248 77.6245 38.8126C78.2339 36.922 78.5464 34.797 78.5464 32.5001V17.2031C78.5464 16.7812 78.8902 16.4375 79.312 16.4375C79.7339 16.4375 80.0776 16.7812 80.0776 17.2031V32.4841C80.0776 34.9372 79.7495 37.2185 79.0933 39.2653C76.7808 46.4997 72.3589 51.7183 65.5773 55.2033C64.2804 55.8752 63.3429 56.7189 62.7804 57.6877C61.7648 59.4846 61.671 61.1408 62.4679 62.6408C62.9991 63.6252 63.9523 64.4689 65.3117 65.1564C72.1867 68.5939 76.6867 73.8126 79.0617 81.1094C79.7335 83.1719 80.0773 85.4844 80.0773 87.9844L80.0616 102.781C80.046 103.219 79.7029 103.562 79.281 103.562Z" fill="#6082A1"/>
<path d="M54.703 51.7502C52.9999 51.7502 51.3124 51.4846 49.7342 50.9533C39.0932 47.3439 36.9532 38.2343 36.5152 34.4693C36.4527 33.8912 36.6871 33.3287 37.1558 32.9693C37.6246 32.6099 38.2339 32.5474 38.7652 32.7662C41.2808 33.8131 47.7652 35.7974 53.5622 31.5631C53.5778 31.5474 53.6091 31.5318 53.6247 31.5162L60.6091 27.5006C66.7185 24.985 71.0151 28.9225 72.5931 30.735C73.2025 31.4381 73.5306 32.36 73.4837 33.2506C72.9994 42.1256 68.6712 47.8596 60.2337 50.7976C58.4212 51.4382 56.5467 51.7502 54.703 51.7502ZM38.047 34.2972C38.4376 37.766 40.422 46.1722 50.219 49.4852C53.2034 50.5008 56.5628 50.4383 59.719 49.3446C67.5002 46.6415 71.5 41.3446 71.938 33.1726C71.9692 32.6726 71.7817 32.1414 71.4224 31.7351C69.7349 29.7976 66.188 26.8445 61.2664 28.8601L54.4226 32.8132C48.0007 37.4851 40.9226 35.3132 38.1726 34.1726L37.2663 34.3601L38.047 34.2972Z" fill="#F5A855"/>
<path d="M38.047 34.2972C38.4376 37.766 40.422 46.1722 50.219 49.4852C53.2034 50.5008 56.5628 50.4383 59.719 49.3446C67.5002 46.6415 71.5 41.3446 71.938 33.1726C71.9692 32.6726 71.7817 32.1414 71.4224 31.7351C69.7349 29.7976 66.188 26.8445 61.2664 28.8601L54.4226 32.8132C48.0007 37.4851 40.9226 35.3132 38.1726 34.1726L37.2663 34.3601L38.047 34.2972Z" fill="#F5A855"/>
<path d="M55 56.062C54.5781 56.062 54.2344 55.7182 54.2344 55.2964V50.9683C54.2344 50.5464 54.5781 50.2026 55 50.2026C55.4219 50.2026 55.7656 50.5464 55.7656 50.9683V55.2964C55.7656 55.7182 55.4219 56.062 55 56.062Z" fill="#F5A855"/>
<path d="M55 64.7968C54.5781 64.7968 54.2344 64.4531 54.2344 64.0312V61.0781C54.2344 60.6562 54.5781 60.3125 55 60.3125C55.4219 60.3125 55.7656 60.6563 55.7656 61.0781V64.0312C55.7656 64.4531 55.4219 64.7968 55 64.7968Z" fill="#F5A855"/>
<path d="M55 69.4692C54.5781 69.4692 54.2344 69.1255 54.2344 68.7036V67.7974C54.2344 67.3755 54.5781 67.0317 55 67.0317C55.4219 67.0317 55.7656 67.3755 55.7656 67.7974V68.7036C55.7656 69.1255 55.4219 69.4692 55 69.4692Z" fill="#F5A855"/>
<path d="M55 75.2339C54.5781 75.2339 54.2344 74.8901 54.2344 74.4683V73.562C54.2344 73.1401 54.5781 72.7964 55 72.7964C55.4219 72.7964 55.7656 73.1401 55.7656 73.562V74.4683C55.7656 74.8901 55.4219 75.2339 55 75.2339Z" fill="#F5A855"/>
<path d="M55 92.9839C54.5781 92.9839 54.2344 92.6401 54.2344 92.2183V83.7808C54.2344 83.3589 54.5781 83.0151 55 83.0151C55.4219 83.0151 55.7656 83.3589 55.7656 83.7808V92.2183C55.7656 92.6401 55.4219 92.9839 55 92.9839Z" fill="#F5A855"/>
</svg>
