<svg width="247" height="130" viewBox="0 0 247 130" fill="none" xmlns="http://www.w3.org/2000/svg">
<path d="M13.3942 28H10.4283L14.9474 14.9091H18.5142L23.027 28H20.0611L16.782 17.9006H16.6797L13.3942 28ZM13.2088 22.8544H20.2145V25.0149H13.2088V22.8544ZM26.9145 22.3239V28H24.1915V18.1818H26.7867V19.9141H26.9017C27.119 19.343 27.4834 18.8913 27.9948 18.5589C28.5061 18.2223 29.1262 18.054 29.8548 18.054C30.5367 18.054 31.1311 18.2031 31.6382 18.5014C32.1453 18.7997 32.5395 19.2259 32.8208 19.7798C33.102 20.3295 33.2426 20.9858 33.2426 21.7486V28H30.5196V22.2344C30.5239 21.6335 30.3705 21.1648 30.0594 20.8281C29.7483 20.4872 29.32 20.3168 28.7746 20.3168C28.4081 20.3168 28.0842 20.3956 27.803 20.5533C27.526 20.7109 27.3087 20.9411 27.151 21.2436C26.9976 21.5419 26.9188 21.902 26.9145 22.3239ZM38.6467 28.1598C37.9009 28.1598 37.2255 27.968 36.6204 27.5845C36.0195 27.1967 35.5423 26.6278 35.1886 25.8778C34.8391 25.1236 34.6644 24.1989 34.6644 23.1037C34.6644 21.9787 34.8455 21.0433 35.2077 20.2976C35.57 19.5476 36.0515 18.9872 36.6523 18.6165C37.2575 18.2415 37.9201 18.054 38.6403 18.054C39.19 18.054 39.6481 18.1477 40.0146 18.3352C40.3853 18.5185 40.6836 18.7486 40.9094 19.0256C41.1396 19.2983 41.3143 19.5668 41.4336 19.831H41.5167V14.9091H44.2333V28H41.5486V26.4276H41.4336C41.3057 26.7003 41.1246 26.9709 40.8903 27.2393C40.6602 27.5036 40.3597 27.723 39.989 27.8977C39.6225 28.0724 39.1751 28.1598 38.6467 28.1598ZM39.5096 25.9929C39.9485 25.9929 40.3192 25.8736 40.6218 25.6349C40.9286 25.392 41.163 25.0533 41.3249 24.6186C41.4911 24.1839 41.5742 23.6747 41.5742 23.0909C41.5742 22.5071 41.4932 22 41.3313 21.5696C41.1694 21.1392 40.935 20.8068 40.6282 20.5724C40.3214 20.3381 39.9485 20.2209 39.5096 20.2209C39.0621 20.2209 38.685 20.3423 38.3782 20.5852C38.0714 20.8281 37.8391 21.1648 37.6815 21.5952C37.5238 22.0256 37.445 22.5241 37.445 23.0909C37.445 23.6619 37.5238 24.1669 37.6815 24.6058C37.8434 25.0405 38.0756 25.3814 38.3782 25.6286C38.685 25.8714 39.0621 25.9929 39.5096 25.9929ZM46.1121 28V18.1818H48.752V19.8949H48.8543C49.0333 19.2855 49.3337 18.8253 49.7556 18.5142C50.1775 18.1989 50.6633 18.0412 51.213 18.0412C51.3493 18.0412 51.4963 18.0497 51.654 18.0668C51.8117 18.0838 51.9502 18.1072 52.0695 18.1371V20.5533C51.9417 20.5149 51.7648 20.4808 51.539 20.451C51.3131 20.4212 51.1064 20.4062 50.9189 20.4062C50.5184 20.4062 50.1604 20.4936 49.8451 20.6683C49.534 20.8388 49.2868 21.0774 49.1036 21.3842C48.9246 21.6911 48.8351 22.0447 48.8351 22.4453V28H46.1121ZM57.0964 28.1918C56.1035 28.1918 55.2448 27.9808 54.5204 27.5589C53.8002 27.1328 53.2441 26.5405 52.8521 25.782C52.46 25.0192 52.264 24.1349 52.264 23.1293C52.264 22.1151 52.46 21.2287 52.8521 20.4702C53.2441 19.7074 53.8002 19.1151 54.5204 18.6932C55.2448 18.267 56.1035 18.054 57.0964 18.054C58.0893 18.054 58.9458 18.267 59.666 18.6932C60.3904 19.1151 60.9487 19.7074 61.3407 20.4702C61.7328 21.2287 61.9288 22.1151 61.9288 23.1293C61.9288 24.1349 61.7328 25.0192 61.3407 25.782C60.9487 26.5405 60.3904 27.1328 59.666 27.5589C58.9458 27.9808 58.0893 28.1918 57.0964 28.1918ZM57.1092 26.0824C57.5609 26.0824 57.938 25.9545 58.2406 25.6989C58.5431 25.4389 58.7711 25.0852 58.9245 24.6378C59.0822 24.1903 59.161 23.6811 59.161 23.1101C59.161 22.5391 59.0822 22.0298 58.9245 21.5824C58.7711 21.1349 58.5431 20.7812 58.2406 20.5213C57.938 20.2614 57.5609 20.1314 57.1092 20.1314C56.6532 20.1314 56.2697 20.2614 55.9586 20.5213C55.6518 20.7812 55.4196 21.1349 55.2619 21.5824C55.1085 22.0298 55.0318 22.5391 55.0318 23.1101C55.0318 23.6811 55.1085 24.1903 55.2619 24.6378C55.4196 25.0852 55.6518 25.4389 55.9586 25.6989C56.2697 25.9545 56.6532 26.0824 57.1092 26.0824ZM63.3394 28V18.1818H66.0624V28H63.3394ZM64.7073 16.9162C64.3025 16.9162 63.9551 16.782 63.6654 16.5135C63.3799 16.2408 63.2371 15.9148 63.2371 15.5355C63.2371 15.1605 63.3799 14.8388 63.6654 14.5703C63.9551 14.2976 64.3025 14.1612 64.7073 14.1612C65.1121 14.1612 65.4573 14.2976 65.7428 14.5703C66.0326 14.8388 66.1775 15.1605 66.1775 15.5355C66.1775 15.9148 66.0326 16.2408 65.7428 16.5135C65.4573 16.782 65.1121 16.9162 64.7073 16.9162ZM71.5016 28.1598C70.7558 28.1598 70.0804 27.968 69.4753 27.5845C68.8744 27.1967 68.3972 26.6278 68.0435 25.8778C67.694 25.1236 67.5193 24.1989 67.5193 23.1037C67.5193 21.9787 67.7004 21.0433 68.0627 20.2976C68.4249 19.5476 68.9064 18.9872 69.5073 18.6165C70.1124 18.2415 70.775 18.054 71.4952 18.054C72.0449 18.054 72.503 18.1477 72.8695 18.3352C73.2402 18.5185 73.5385 18.7486 73.7644 19.0256C73.9945 19.2983 74.1692 19.5668 74.2885 19.831H74.3716V14.9091H77.0882V28H74.4036V26.4276H74.2885C74.1607 26.7003 73.9796 26.9709 73.7452 27.2393C73.5151 27.5036 73.2146 27.723 72.8439 27.8977C72.4774 28.0724 72.03 28.1598 71.5016 28.1598ZM72.3645 25.9929C72.8034 25.9929 73.1742 25.8736 73.4767 25.6349C73.7835 25.392 74.0179 25.0533 74.1798 24.6186C74.346 24.1839 74.4291 23.6747 74.4291 23.0909C74.4291 22.5071 74.3482 22 74.1862 21.5696C74.0243 21.1392 73.7899 20.8068 73.4831 20.5724C73.1763 20.3381 72.8034 20.2209 72.3645 20.2209C71.9171 20.2209 71.5399 20.3423 71.2331 20.5852C70.9263 20.8281 70.694 21.1648 70.5364 21.5952C70.3787 22.0256 70.2999 22.5241 70.2999 23.0909C70.2999 23.6619 70.3787 24.1669 70.5364 24.6058C70.6983 25.0405 70.9306 25.3814 71.2331 25.6286C71.5399 25.8714 71.9171 25.9929 72.3645 25.9929ZM17.074 44.294H19.45V48.092H17.074V44.294ZM18.262 35.78C19.45 35.78 20.512 35.972 21.448 36.356C22.396 36.728 23.14 37.256 23.68 37.94C24.22 38.624 24.49 39.434 24.49 40.37C24.49 41.294 24.22 42.104 23.68 42.8C23.14 43.496 22.396 44.036 21.448 44.42C20.512 44.792 19.45 44.978 18.262 44.978C17.086 44.978 16.024 44.792 15.076 44.42C14.14 44.036 13.396 43.496 12.844 42.8C12.304 42.104 12.034 41.294 12.034 40.37C12.034 39.434 12.304 38.624 12.844 37.94C13.396 37.256 14.14 36.728 15.076 36.356C16.024 35.972 17.086 35.78 18.262 35.78ZM18.262 37.67C17.506 37.67 16.834 37.778 16.246 37.994C15.67 38.21 15.214 38.516 14.878 38.912C14.554 39.308 14.392 39.794 14.392 40.37C14.392 40.934 14.554 41.42 14.878 41.828C15.214 42.224 15.67 42.53 16.246 42.746C16.834 42.962 17.506 43.07 18.262 43.07C19.03 43.07 19.702 42.962 20.278 42.746C20.866 42.53 21.322 42.224 21.646 41.828C21.97 41.42 22.132 40.934 22.132 40.37C22.132 39.794 21.97 39.308 21.646 38.912C21.322 38.516 20.866 38.21 20.278 37.994C19.702 37.778 19.03 37.67 18.262 37.67ZM10.738 47.714H25.84V49.658H10.738V47.714ZM26.9366 43.934H42.0206V45.842H26.9366V43.934ZM28.8266 49.388H40.5806V51.314H28.8266V49.388ZM28.8266 46.742H31.2026V50.234H28.8266V46.742ZM28.7726 35.294H40.1846V39.938H31.1666V41.648H28.8086V38.246H37.8266V37.112H28.7726V35.294ZM28.8086 41.09H40.5086V42.908H28.8086V41.09ZM46.2852 36.518H48.0492V37.4C48.0492 38.036 47.9232 38.648 47.6712 39.236C47.4192 39.824 47.0172 40.346 46.4652 40.802C45.9252 41.246 45.2352 41.576 44.3952 41.792L43.4052 40.046C44.0532 39.89 44.5872 39.674 45.0072 39.398C45.4392 39.11 45.7572 38.792 45.9612 38.444C46.1772 38.084 46.2852 37.736 46.2852 37.4V36.518ZM46.9872 36.518H48.6792V37.364C48.6792 37.676 48.7752 37.994 48.9672 38.318C49.1712 38.642 49.4712 38.936 49.8672 39.2C50.2752 39.464 50.7732 39.668 51.3612 39.812L50.6592 41.576C49.7832 41.372 49.0752 41.048 48.5352 40.604C47.9952 40.148 47.5992 39.638 47.3472 39.074C47.1072 38.51 46.9872 37.94 46.9872 37.364V36.518ZM52.6212 36.518H54.3132V37.364C54.3132 37.952 54.1872 38.528 53.9352 39.092C53.6952 39.656 53.3052 40.16 52.7652 40.604C52.2252 41.048 51.5232 41.372 50.6592 41.576L49.9572 39.812C50.5452 39.668 51.0372 39.47 51.4332 39.218C51.8292 38.954 52.1232 38.66 52.3152 38.336C52.5192 38 52.6212 37.676 52.6212 37.364V36.518ZM53.2692 36.518H55.0332V37.4C55.0332 37.76 55.1352 38.114 55.3392 38.462C55.5552 38.81 55.8732 39.128 56.2932 39.416C56.7252 39.692 57.2652 39.902 57.9132 40.046L56.9412 41.792C56.0892 41.576 55.3932 41.246 54.8532 40.802C54.3132 40.358 53.9112 39.842 53.6472 39.254C53.3952 38.666 53.2692 38.048 53.2692 37.4V36.518ZM44.1252 35.51H50.3172V37.382H44.1252V35.51ZM50.9832 35.51H57.1752V37.382H50.9832V35.51ZM43.1172 42.908H58.2192V44.816H43.1172V42.908ZM49.4712 41.576H51.8472V44.42H49.4712V41.576ZM44.7552 46.13H56.3832V51.602H53.9892V48.02H44.7552V46.13ZM63.6078 36.626H70.1778V47.426H63.6078V36.626ZM67.9638 38.498H65.8398V45.572H67.9638V38.498ZM75.1638 34.916H77.4498V51.584H75.1638V34.916ZM68.9718 40.982H72.7158V42.908H68.9718V40.982ZM71.7798 35.186H74.0118V50.846H71.7798V35.186ZM81.1564 40.172H92.7304V42.08H81.1564V40.172ZM81.1564 35.672H83.5504V41.018H81.1564V35.672ZM79.3384 43.898H94.4224V45.824H79.3384V43.898ZM82.7584 44.582H85.1524V51.602H82.7584V44.582ZM88.5904 44.582H90.9664V51.602H88.5904V44.582ZM100.603 40.586C99.991 40.586 99.523 40.082 99.523 39.506C99.523 38.912 100.009 38.426 100.603 38.426C101.197 38.426 101.683 38.894 101.683 39.506C101.683 40.1 101.197 40.586 100.603 40.586ZM100.603 46.094C99.991 46.094 99.523 45.59 99.523 45.014C99.523 44.42 100.009 43.934 100.603 43.934C101.161 43.934 101.683 44.384 101.683 45.014C101.683 45.608 101.197 46.094 100.603 46.094ZM100.603 51.53C99.991 51.53 99.523 51.026 99.523 50.45C99.523 49.892 99.973 49.37 100.603 49.37C101.197 49.37 101.683 49.856 101.683 50.45C101.683 51.062 101.197 51.53 100.603 51.53ZM115.003 50.7159L113.52 49.2457L117.413 45.353H108.291V43.1925H117.413L113.52 39.3061L115.003 37.8295L121.446 44.2727L115.003 50.7159ZM129.145 46.544H140.665V51.422H129.145V46.544ZM138.325 48.308H131.485V49.64H138.325V48.308ZM128.101 36.086H141.691V37.904H128.101V36.086ZM134.923 38.3C136.723 38.3 138.103 38.504 139.063 38.912C140.023 39.308 140.503 39.896 140.503 40.676C140.503 41.468 140.023 42.068 139.063 42.476C138.103 42.872 136.723 43.07 134.923 43.07C133.147 43.07 131.773 42.872 130.801 42.476C129.829 42.068 129.343 41.468 129.343 40.676C129.343 39.896 129.829 39.308 130.801 38.912C131.773 38.504 133.147 38.3 134.923 38.3ZM134.923 39.92C133.903 39.92 133.147 39.98 132.655 40.1C132.163 40.22 131.917 40.412 131.917 40.676C131.917 40.952 132.163 41.15 132.655 41.27C133.147 41.39 133.903 41.45 134.923 41.45C135.967 41.45 136.729 41.39 137.209 41.27C137.701 41.15 137.947 40.952 137.947 40.676C137.947 40.412 137.701 40.22 137.209 40.1C136.729 39.98 135.967 39.92 134.923 39.92ZM133.735 34.808H136.111V37.382H133.735V34.808ZM127.381 43.844H142.465V45.698H127.381V43.844ZM133.735 42.494H136.111V44.816H133.735V42.494ZM151.256 44.798H153.65V47.48H151.256V44.798ZM158.258 34.934H160.652V51.602H158.258V34.934ZM159.824 41.702H162.758V43.664H159.824V41.702ZM147.512 48.83L147.224 46.886C148.184 46.886 149.234 46.88 150.374 46.868C151.526 46.856 152.702 46.814 153.902 46.742C155.114 46.67 156.284 46.562 157.412 46.418L157.592 48.146C156.428 48.362 155.246 48.524 154.046 48.632C152.846 48.728 151.688 48.788 150.572 48.812C149.468 48.824 148.448 48.83 147.512 48.83ZM147.53 36.752H157.34V38.624H147.53V36.752ZM152.444 39.29C153.248 39.29 153.956 39.422 154.568 39.686C155.18 39.95 155.66 40.316 156.008 40.784C156.356 41.252 156.53 41.798 156.53 42.422C156.53 43.034 156.356 43.58 156.008 44.06C155.66 44.528 155.18 44.894 154.568 45.158C153.956 45.422 153.248 45.554 152.444 45.554C151.652 45.554 150.95 45.422 150.338 45.158C149.726 44.894 149.246 44.528 148.898 44.06C148.55 43.58 148.376 43.034 148.376 42.422C148.376 41.798 148.55 41.252 148.898 40.784C149.246 40.316 149.726 39.95 150.338 39.686C150.95 39.422 151.652 39.29 152.444 39.29ZM152.444 41.09C151.904 41.09 151.466 41.21 151.13 41.45C150.806 41.678 150.644 42.002 150.644 42.422C150.644 42.854 150.806 43.184 151.13 43.412C151.466 43.64 151.904 43.754 152.444 43.754C152.996 43.754 153.434 43.64 153.758 43.412C154.094 43.184 154.262 42.854 154.262 42.422C154.262 42.002 154.094 41.678 153.758 41.45C153.434 41.21 152.996 41.09 152.444 41.09ZM151.256 35.006H153.65V38.156H151.256V35.006ZM171.648 37.544H175.842V39.452H171.648V37.544ZM171.648 41.126H175.914V43.034H171.648V41.126ZM164.268 36.266H172.152V44.42H164.268V36.266ZM169.812 38.138H166.626V42.53H169.812V38.138ZM175.14 34.934H177.552V47.066H175.14V34.934ZM166.518 49.388H177.912V51.314H166.518V49.388ZM166.518 45.932H168.912V50.396H166.518V45.932ZM186.461 41.054H189.197V42.98H186.461V41.054ZM191.825 34.916H194.111V51.584H191.825V34.916ZM188.441 35.186H190.673V50.846H188.441V35.186ZM183.545 36.086C184.277 36.086 184.913 36.332 185.453 36.824C186.005 37.304 186.425 38 186.713 38.912C187.013 39.812 187.163 40.892 187.163 42.152C187.163 43.4 187.013 44.48 186.713 45.392C186.425 46.304 186.005 47.006 185.453 47.498C184.913 47.978 184.271 48.218 183.527 48.218C182.807 48.218 182.171 47.978 181.619 47.498C181.079 47.006 180.659 46.304 180.359 45.392C180.071 44.48 179.927 43.4 179.927 42.152C179.927 40.892 180.071 39.812 180.359 38.912C180.659 38 181.079 37.304 181.619 36.824C182.171 36.332 182.813 36.086 183.545 36.086ZM183.545 38.354C183.245 38.354 182.987 38.492 182.771 38.768C182.555 39.044 182.387 39.464 182.267 40.028C182.159 40.58 182.105 41.288 182.105 42.152C182.105 42.992 182.159 43.694 182.267 44.258C182.387 44.822 182.555 45.248 182.771 45.536C182.987 45.812 183.245 45.95 183.545 45.95C183.845 45.95 184.103 45.812 184.319 45.536C184.547 45.248 184.715 44.822 184.823 44.258C184.931 43.694 184.985 42.992 184.985 42.152C184.985 41.288 184.931 40.58 184.823 40.028C184.715 39.464 184.547 39.044 184.319 38.768C184.103 38.492 183.845 38.354 183.545 38.354ZM206.124 45.59H208.518V51.62H206.124V45.59ZM199.806 44.906H214.89V46.85H199.806V44.906ZM206.106 37.922H208.212V38.318C208.212 38.87 208.116 39.41 207.924 39.938C207.744 40.454 207.468 40.94 207.096 41.396C206.724 41.84 206.262 42.248 205.71 42.62C205.158 42.98 204.522 43.286 203.802 43.538C203.082 43.778 202.284 43.952 201.408 44.06L200.562 42.17C201.318 42.086 201.99 41.948 202.578 41.756C203.178 41.564 203.7 41.336 204.144 41.072C204.588 40.808 204.954 40.526 205.242 40.226C205.542 39.914 205.758 39.596 205.89 39.272C206.034 38.936 206.106 38.618 206.106 38.318V37.922ZM206.43 37.922H208.518V38.318C208.518 38.606 208.59 38.918 208.734 39.254C208.89 39.578 209.112 39.896 209.4 40.208C209.688 40.508 210.054 40.796 210.498 41.072C210.942 41.336 211.458 41.564 212.046 41.756C212.646 41.948 213.318 42.086 214.062 42.17L213.234 44.06C212.346 43.964 211.542 43.79 210.822 43.538C210.114 43.274 209.484 42.962 208.932 42.602C208.38 42.242 207.918 41.834 207.546 41.378C207.174 40.91 206.892 40.418 206.7 39.902C206.52 39.386 206.43 38.858 206.43 38.318V37.922ZM201.156 36.824H213.504V38.714H201.156V36.824ZM206.124 34.97H208.518V37.472H206.124V34.97ZM226.642 34.898H229.054V51.566H226.642V34.898ZM228.442 41.288H231.376V43.25H228.442V41.288ZM222.268 36.626H224.626C224.626 38.294 224.386 39.872 223.906 41.36C223.438 42.848 222.658 44.216 221.566 45.464C220.486 46.7 219.022 47.78 217.174 48.704L215.824 46.886C217.288 46.13 218.494 45.278 219.442 44.33C220.402 43.382 221.11 42.308 221.566 41.108C222.034 39.896 222.268 38.546 222.268 37.058V36.626ZM216.742 36.626H223.51V38.552H216.742V36.626ZM11.0866 94V84.1818H13.8097V94H11.0866ZM12.4545 82.9162C12.0497 82.9162 11.7024 82.782 11.4126 82.5135C11.1271 82.2408 10.9844 81.9148 10.9844 81.5355C10.9844 81.1605 11.1271 80.8388 11.4126 80.5703C11.7024 80.2976 12.0497 80.1612 12.4545 80.1612C12.8594 80.1612 13.2045 80.2976 13.4901 80.5703C13.7798 80.8388 13.9247 81.1605 13.9247 81.5355C13.9247 81.9148 13.7798 82.2408 13.4901 82.5135C13.2045 82.782 12.8594 82.9162 12.4545 82.9162ZM15.6821 94V80.9091H20.8469C21.8398 80.9091 22.6856 81.0987 23.3845 81.478C24.0834 81.853 24.616 82.375 24.9825 83.044C25.3532 83.7088 25.5386 84.4759 25.5386 85.3452C25.5386 86.2145 25.3511 86.9815 24.9761 87.6463C24.6011 88.3111 24.0578 88.8288 23.3461 89.1996C22.6388 89.5703 21.7822 89.7557 20.7765 89.7557H17.4846V87.5376H20.3291C20.8618 87.5376 21.3007 87.446 21.6459 87.2628C21.9953 87.0753 22.2552 86.8175 22.4257 86.4893C22.6004 86.157 22.6878 85.7756 22.6878 85.3452C22.6878 84.9105 22.6004 84.5312 22.4257 84.2074C22.2552 83.8793 21.9953 83.6257 21.6459 83.4467C21.2964 83.2635 20.8532 83.1719 20.3163 83.1719H18.4498V94H15.6821ZM29.6483 88.3239V94H26.9252V80.9091H29.5715V85.9141H29.6866C29.9082 85.3345 30.2662 84.8807 30.7605 84.5526C31.2548 84.2202 31.8748 84.054 32.6206 84.054C33.3024 84.054 33.8968 84.2031 34.4039 84.5014C34.9153 84.7955 35.3116 85.2195 35.5929 85.7734C35.8784 86.3232 36.019 86.9815 36.0147 87.7486V94H33.2917V88.2344C33.296 87.6293 33.1426 87.1584 32.8315 86.8217C32.5247 86.4851 32.0943 86.3168 31.5403 86.3168C31.1696 86.3168 30.8414 86.3956 30.5559 86.5533C30.2747 86.7109 30.0531 86.9411 29.8912 87.2436C29.7335 87.5419 29.6525 87.902 29.6483 88.3239ZM42.2337 94.1918C41.2408 94.1918 40.3822 93.9808 39.6577 93.5589C38.9376 93.1328 38.3815 92.5405 37.9894 91.782C37.5974 91.0192 37.4014 90.1349 37.4014 89.1293C37.4014 88.1151 37.5974 87.2287 37.9894 86.4702C38.3815 85.7074 38.9376 85.1151 39.6577 84.6932C40.3822 84.267 41.2408 84.054 42.2337 84.054C43.2266 84.054 44.0832 84.267 44.8033 84.6932C45.5278 85.1151 46.086 85.7074 46.4781 86.4702C46.8701 87.2287 47.0661 88.1151 47.0661 89.1293C47.0661 90.1349 46.8701 91.0192 46.4781 91.782C46.086 92.5405 45.5278 93.1328 44.8033 93.5589C44.0832 93.9808 43.2266 94.1918 42.2337 94.1918ZM42.2465 92.0824C42.6982 92.0824 43.0754 91.9545 43.3779 91.6989C43.6805 91.4389 43.9085 91.0852 44.0619 90.6378C44.2195 90.1903 44.2984 89.6811 44.2984 89.1101C44.2984 88.5391 44.2195 88.0298 44.0619 87.5824C43.9085 87.1349 43.6805 86.7812 43.3779 86.5213C43.0754 86.2614 42.6982 86.1314 42.2465 86.1314C41.7906 86.1314 41.407 86.2614 41.096 86.5213C40.7891 86.7812 40.5569 87.1349 40.3992 87.5824C40.2458 88.0298 40.1691 88.5391 40.1691 89.1101C40.1691 89.6811 40.2458 90.1903 40.3992 90.6378C40.5569 91.0852 40.7891 91.4389 41.096 91.6989C41.407 91.9545 41.7906 92.0824 42.2465 92.0824ZM51.1997 88.3239V94H48.4767V84.1818H51.0719V85.9141H51.187C51.4043 85.343 51.7686 84.8913 52.28 84.5589C52.7914 84.2223 53.4114 84.054 54.1401 84.054C54.8219 84.054 55.4164 84.2031 55.9235 84.5014C56.4306 84.7997 56.8247 85.2259 57.106 85.7798C57.3872 86.3295 57.5279 86.9858 57.5279 87.7486V94H54.8049V88.2344C54.8091 87.6335 54.6557 87.1648 54.3446 86.8281C54.0335 86.4872 53.6053 86.3168 53.0598 86.3168C52.6933 86.3168 52.3695 86.3956 52.0882 86.5533C51.8112 86.7109 51.5939 86.9411 51.4362 87.2436C51.2828 87.5419 51.204 87.902 51.1997 88.3239ZM63.7884 94.1918C62.7785 94.1918 61.9092 93.9872 61.1805 93.5781C60.456 93.1648 59.8978 92.581 59.5058 91.8267C59.1137 91.0682 58.9177 90.1712 58.9177 89.1357C58.9177 88.1257 59.1137 87.2393 59.5058 86.4766C59.8978 85.7138 60.4496 85.1193 61.1613 84.6932C61.8772 84.267 62.7167 84.054 63.6798 84.054C64.3275 84.054 64.9305 84.1584 65.4887 84.3672C66.0512 84.5717 66.5413 84.8807 66.9589 85.294C67.3808 85.7074 67.7089 86.2273 67.9433 86.8537C68.1776 87.4759 68.2948 88.2045 68.2948 89.0398V89.7876H60.0043V88.1001H65.7316C65.7316 87.7081 65.6464 87.3608 65.4759 87.0582C65.3055 86.7557 65.069 86.5192 64.7664 86.3487C64.4681 86.174 64.1208 86.0866 63.7245 86.0866C63.3112 86.0866 62.9447 86.1825 62.6251 86.3743C62.3097 86.5618 62.0626 86.8153 61.8836 87.1349C61.7046 87.4503 61.613 87.8018 61.6087 88.1896V89.794C61.6087 90.2798 61.6982 90.6996 61.8772 91.0533C62.0604 91.407 62.3183 91.6797 62.6506 91.8714C62.983 92.0632 63.3772 92.1591 63.8332 92.1591C64.1357 92.1591 64.4127 92.1165 64.6641 92.0312C64.9156 91.946 65.1308 91.8182 65.3097 91.6477C65.4887 91.4773 65.6251 91.2685 65.7188 91.0213L68.2373 91.1875C68.1094 91.7926 67.8474 92.321 67.4511 92.7727C67.059 93.2202 66.5519 93.5696 65.9298 93.821C65.3119 94.0682 64.5981 94.1918 63.7884 94.1918ZM18.172 111.302C19.372 111.302 20.416 111.428 21.304 111.68C22.192 111.932 22.876 112.292 23.356 112.76C23.848 113.228 24.094 113.792 24.094 114.452C24.094 115.1 23.848 115.658 23.356 116.126C22.876 116.606 22.192 116.972 21.304 117.224C20.416 117.476 19.372 117.602 18.172 117.602C16.984 117.602 15.946 117.476 15.058 117.224C14.17 116.972 13.48 116.606 12.988 116.126C12.508 115.658 12.268 115.1 12.268 114.452C12.268 113.792 12.508 113.228 12.988 112.76C13.48 112.292 14.17 111.932 15.058 111.68C15.946 111.428 16.984 111.302 18.172 111.302ZM18.172 113.102C17.428 113.102 16.792 113.15 16.264 113.246C15.736 113.342 15.334 113.492 15.058 113.696C14.794 113.9 14.662 114.152 14.662 114.452C14.662 114.752 14.794 115.004 15.058 115.208C15.334 115.4 15.736 115.55 16.264 115.658C16.792 115.754 17.428 115.802 18.172 115.802C18.928 115.802 19.57 115.754 20.098 115.658C20.626 115.55 21.028 115.4 21.304 115.208C21.58 115.004 21.718 114.752 21.718 114.452C21.718 114.152 21.58 113.9 21.304 113.696C21.028 113.492 20.626 113.342 20.098 113.246C19.57 113.15 18.928 113.102 18.172 113.102ZM12.448 101.672H23.014V103.544H12.448V101.672ZM10.774 108.368H25.768V110.258H10.774V108.368ZM16.318 105.452H18.712V108.836H16.318V105.452ZM21.61 101.672H24.004V103.04C24.004 103.7 23.986 104.39 23.95 105.11C23.914 105.83 23.776 106.622 23.536 107.486L21.16 107.252C21.388 106.4 21.52 105.644 21.556 104.984C21.592 104.324 21.61 103.676 21.61 103.04V101.672ZM30.3386 111.464H32.7686V117.584H30.3386V111.464ZM36.0986 111.464H38.5286V117.584H36.0986V111.464ZM26.9366 110.204H42.0206V112.13H26.9366V110.204ZM34.4426 101.492C35.6306 101.492 36.6746 101.642 37.5746 101.942C38.4866 102.242 39.1946 102.674 39.6986 103.238C40.2026 103.802 40.4546 104.462 40.4546 105.218C40.4546 105.974 40.2026 106.634 39.6986 107.198C39.1946 107.75 38.4866 108.182 37.5746 108.494C36.6746 108.794 35.6306 108.944 34.4426 108.944C33.2546 108.944 32.2046 108.794 31.2926 108.494C30.3926 108.182 29.6846 107.75 29.1686 107.198C28.6646 106.634 28.4126 105.974 28.4126 105.218C28.4126 104.462 28.6646 103.802 29.1686 103.238C29.6846 102.674 30.3926 102.242 31.2926 101.942C32.2046 101.642 33.2546 101.492 34.4426 101.492ZM34.4426 103.382C33.7106 103.382 33.0746 103.454 32.5346 103.598C32.0066 103.742 31.5986 103.952 31.3106 104.228C31.0226 104.492 30.8786 104.822 30.8786 105.218C30.8786 105.614 31.0226 105.95 31.3106 106.226C31.5986 106.49 32.0066 106.694 32.5346 106.838C33.0746 106.97 33.7106 107.036 34.4426 107.036C35.1746 107.036 35.8046 106.97 36.3326 106.838C36.8606 106.694 37.2686 106.49 37.5566 106.226C37.8566 105.95 38.0066 105.614 38.0066 105.218C38.0066 104.822 37.8566 104.492 37.5566 104.228C37.2686 103.952 36.8606 103.742 36.3326 103.598C35.8046 103.454 35.1746 103.382 34.4426 103.382ZM58.5332 100.898H60.9272V117.62H58.5332V100.898ZM54.7532 106.766H59.2172V108.692H54.7532V106.766ZM47.5532 102.212H49.9292V106.262H53.2052V102.212H55.5632V113.696H47.5532V102.212ZM49.9292 108.116V111.788H53.2052V108.116H49.9292ZM63.1038 109.916H78.1878V111.806H63.1038V109.916ZM64.9218 115.388H76.6758V117.314H64.9218V115.388ZM64.9218 112.634H67.3158V116.162H64.9218V112.634ZM64.9938 107.126H76.6038V108.926H64.9938V107.126ZM64.9938 101.456H76.4598V103.274H67.3698V107.882H64.9938V101.456ZM66.6858 104.3H76.0998V106.046H66.6858V104.3ZM91.3681 116.716L89.8851 115.246L93.7779 111.353H84.6564V109.192H93.7779L89.8851 105.306L91.3681 103.83L97.8112 110.273L91.3681 116.716ZM105.51 112.544H117.03V117.422H105.51V112.544ZM114.69 114.308H107.85V115.64H114.69V114.308ZM104.466 102.086H118.056V103.904H104.466V102.086ZM111.288 104.3C113.088 104.3 114.468 104.504 115.428 104.912C116.388 105.308 116.868 105.896 116.868 106.676C116.868 107.468 116.388 108.068 115.428 108.476C114.468 108.872 113.088 109.07 111.288 109.07C109.512 109.07 108.138 108.872 107.166 108.476C106.194 108.068 105.708 107.468 105.708 106.676C105.708 105.896 106.194 105.308 107.166 104.912C108.138 104.504 109.512 104.3 111.288 104.3ZM111.288 105.92C110.268 105.92 109.512 105.98 109.02 106.1C108.528 106.22 108.282 106.412 108.282 106.676C108.282 106.952 108.528 107.15 109.02 107.27C109.512 107.39 110.268 107.45 111.288 107.45C112.332 107.45 113.094 107.39 113.574 107.27C114.066 107.15 114.312 106.952 114.312 106.676C114.312 106.412 114.066 106.22 113.574 106.1C113.094 105.98 112.332 105.92 111.288 105.92ZM110.1 100.808H112.476V103.382H110.1V100.808ZM103.746 109.844H118.83V111.698H103.746V109.844ZM110.1 108.494H112.476V110.816H110.1V108.494ZM127.621 110.798H130.015V113.48H127.621V110.798ZM134.623 100.934H137.017V117.602H134.623V100.934ZM136.189 107.702H139.123V109.664H136.189V107.702ZM123.877 114.83L123.589 112.886C124.549 112.886 125.599 112.88 126.739 112.868C127.891 112.856 129.067 112.814 130.267 112.742C131.479 112.67 132.649 112.562 133.777 112.418L133.957 114.146C132.793 114.362 131.611 114.524 130.411 114.632C129.211 114.728 128.053 114.788 126.937 114.812C125.833 114.824 124.813 114.83 123.877 114.83ZM123.895 102.752H133.705V104.624H123.895V102.752ZM128.809 105.29C129.613 105.29 130.321 105.422 130.933 105.686C131.545 105.95 132.025 106.316 132.373 106.784C132.721 107.252 132.895 107.798 132.895 108.422C132.895 109.034 132.721 109.58 132.373 110.06C132.025 110.528 131.545 110.894 130.933 111.158C130.321 111.422 129.613 111.554 128.809 111.554C128.017 111.554 127.315 111.422 126.703 111.158C126.091 110.894 125.611 110.528 125.263 110.06C124.915 109.58 124.741 109.034 124.741 108.422C124.741 107.798 124.915 107.252 125.263 106.784C125.611 106.316 126.091 105.95 126.703 105.686C127.315 105.422 128.017 105.29 128.809 105.29ZM128.809 107.09C128.269 107.09 127.831 107.21 127.495 107.45C127.171 107.678 127.009 108.002 127.009 108.422C127.009 108.854 127.171 109.184 127.495 109.412C127.831 109.64 128.269 109.754 128.809 109.754C129.361 109.754 129.799 109.64 130.123 109.412C130.459 109.184 130.627 108.854 130.627 108.422C130.627 108.002 130.459 107.678 130.123 107.45C129.799 107.21 129.361 107.09 128.809 107.09ZM127.621 101.006H130.015V104.156H127.621V101.006ZM148.013 103.544H152.207V105.452H148.013V103.544ZM148.013 107.126H152.279V109.034H148.013V107.126ZM140.633 102.266H148.517V110.42H140.633V102.266ZM146.177 104.138H142.991V108.53H146.177V104.138ZM151.505 100.934H153.917V113.066H151.505V100.934ZM142.883 115.388H154.277V117.314H142.883V115.388ZM142.883 111.932H145.277V116.396H142.883V111.932ZM162.826 107.054H165.562V108.98H162.826V107.054ZM168.19 100.916H170.476V117.584H168.19V100.916ZM164.806 101.186H167.038V116.846H164.806V101.186ZM159.91 102.086C160.642 102.086 161.278 102.332 161.818 102.824C162.37 103.304 162.79 104 163.078 104.912C163.378 105.812 163.528 106.892 163.528 108.152C163.528 109.4 163.378 110.48 163.078 111.392C162.79 112.304 162.37 113.006 161.818 113.498C161.278 113.978 160.636 114.218 159.892 114.218C159.172 114.218 158.536 113.978 157.984 113.498C157.444 113.006 157.024 112.304 156.724 111.392C156.436 110.48 156.292 109.4 156.292 108.152C156.292 106.892 156.436 105.812 156.724 104.912C157.024 104 157.444 103.304 157.984 102.824C158.536 102.332 159.178 102.086 159.91 102.086ZM159.91 104.354C159.61 104.354 159.352 104.492 159.136 104.768C158.92 105.044 158.752 105.464 158.632 106.028C158.524 106.58 158.47 107.288 158.47 108.152C158.47 108.992 158.524 109.694 158.632 110.258C158.752 110.822 158.92 111.248 159.136 111.536C159.352 111.812 159.61 111.95 159.91 111.95C160.21 111.95 160.468 111.812 160.684 111.536C160.912 111.248 161.08 110.822 161.188 110.258C161.296 109.694 161.35 108.992 161.35 108.152C161.35 107.288 161.296 106.58 161.188 106.028C161.08 105.464 160.912 105.044 160.684 104.768C160.468 104.492 160.21 104.354 159.91 104.354ZM182.489 111.59H184.883V117.62H182.489V111.59ZM176.171 110.906H191.255V112.85H176.171V110.906ZM182.471 103.922H184.577V104.318C184.577 104.87 184.481 105.41 184.289 105.938C184.109 106.454 183.833 106.94 183.461 107.396C183.089 107.84 182.627 108.248 182.075 108.62C181.523 108.98 180.887 109.286 180.167 109.538C179.447 109.778 178.649 109.952 177.773 110.06L176.927 108.17C177.683 108.086 178.355 107.948 178.943 107.756C179.543 107.564 180.065 107.336 180.509 107.072C180.953 106.808 181.319 106.526 181.607 106.226C181.907 105.914 182.123 105.596 182.255 105.272C182.399 104.936 182.471 104.618 182.471 104.318V103.922ZM182.795 103.922H184.883V104.318C184.883 104.606 184.955 104.918 185.099 105.254C185.255 105.578 185.477 105.896 185.765 106.208C186.053 106.508 186.419 106.796 186.863 107.072C187.307 107.336 187.823 107.564 188.411 107.756C189.011 107.948 189.683 108.086 190.427 108.17L189.599 110.06C188.711 109.964 187.907 109.79 187.187 109.538C186.479 109.274 185.849 108.962 185.297 108.602C184.745 108.242 184.283 107.834 183.911 107.378C183.539 106.91 183.257 106.418 183.065 105.902C182.885 105.386 182.795 104.858 182.795 104.318V103.922ZM177.521 102.824H189.869V104.714H177.521V102.824ZM182.489 100.97H184.883V103.472H182.489V100.97ZM203.007 100.898H205.419V117.566H203.007V100.898ZM204.807 107.288H207.741V109.25H204.807V107.288ZM198.633 102.626H200.991C200.991 104.294 200.751 105.872 200.271 107.36C199.803 108.848 199.023 110.216 197.931 111.464C196.851 112.7 195.387 113.78 193.539 114.704L192.189 112.886C193.653 112.13 194.859 111.278 195.807 110.33C196.767 109.382 197.475 108.308 197.931 107.108C198.399 105.896 198.633 104.546 198.633 103.058V102.626ZM193.107 102.626H199.875V104.552H193.107V102.626Z" fill="#4A5568"/>
</svg>
